<svg width="32" height="32" xmlns="http://www.w3.org/2000/svg" viewBox="0 0 32 32">
<defs>
<style>
    .cls-1 {
        fill: #eaeaea;
    }
    .cls-2{
        fill: #ea7845;
    }
</style>
</defs>
<g id="Layer_2" data-name="Layer 2">
<g id="Layer_1-2" data-name="Layer 1">
<path opacity="0.1" fill-rule="evenodd" clip-rule="evenodd" d="M0 16C0 7.16344 7.16344 0 16 0C24.8366 0 32 7.16344 32 16C32 24.8366 24.8366 32 16 32C7.16344 32 0 24.8366 0 16Z" fill="#282626"/>
<path class="cls-2" d="M24.91,11.22A9.84,9.84,0,0,0,21.3,7.61a9.68,9.68,0,0,0-5-1.33,9.68,9.68,0,0,0-5,1.33A9.9,9.9,0,0,0,6.4,16.19,9.61,9.61,0,0,0,8.3,22a9.73,9.73,0,0,0,4.88,3.58.6.6,0,0,0,.52-.09.51.51,0,0,0,.17-.39s0-.26,0-.7,0-.82,0-1.15l-.29.06a3.78,3.78,0,0,1-.72,0,4.73,4.73,0,0,1-.9-.09,1.86,1.86,0,0,1-.86-.39,1.58,1.58,0,0,1-.57-.79l-.13-.3a3,3,0,0,0-.41-.66,1.55,1.55,0,0,0-.56-.49l-.09-.06a1.25,1.25,0,0,1-.17-.16A.58.58,0,0,1,9,20.26q0-.09.06-.15a1.07,1.07,0,0,1,.38-.05l.26,0a1.75,1.75,0,0,1,.63.3,2.05,2.05,0,0,1,.63.68,2.26,2.26,0,0,0,.72.8,1.48,1.48,0,0,0,.84.28,4,4,0,0,0,.74-.06,2.64,2.64,0,0,0,.58-.2,2.14,2.14,0,0,1,.63-1.33,9,9,0,0,1-1.32-.23,5.09,5.09,0,0,1-1.21-.5,3.42,3.42,0,0,1-1-.87,4,4,0,0,1-.68-1.35A6.36,6.36,0,0,1,10,15.68,3.77,3.77,0,0,1,11,13a3.57,3.57,0,0,1,.09-2.64,1.87,1.87,0,0,1,1.12.18,6.56,6.56,0,0,1,1.07.5c.23.13.41.25.55.34a9.48,9.48,0,0,1,5,0l.49-.31a7.36,7.36,0,0,1,1.19-.56,1.72,1.72,0,0,1,1.05-.15,3.48,3.48,0,0,1,.1,2.64,3.77,3.77,0,0,1,1,2.66,6.36,6.36,0,0,1-.27,1.94A3.84,3.84,0,0,1,21.7,19a3.73,3.73,0,0,1-1.05.86,5.09,5.09,0,0,1-1.21.5,9,9,0,0,1-1.32.23,2.34,2.34,0,0,1,.67,1.84v2.72a.51.51,0,0,0,.16.39.58.58,0,0,0,.51.09,9.91,9.91,0,0,0,6.78-9.42A9.67,9.67,0,0,0,24.91,11.22Z"/>
</g>
</g>
</svg>