<svg width="32" height="32" xmlns="http://www.w3.org/2000/svg" viewBox="0 0 32 32">
<defs>
<style>
    .cls-1{
        fill:#eaeaea;
    }
    .cls-2{
        fill:#ea7845;
    }
</style>
</defs>
<g id="Layer_2" data-name="Layer 2">
<g id="Layer_1-2" data-name="Layer 1">
<path opacity="0.1" fill-rule="evenodd" clip-rule="evenodd" d="M0 16C0 7.16344 7.16344 0 16 0C24.8366 0 32 7.16344 32 16C32 24.8366 24.8366 32 16 32C7.16344 32 0 24.8366 0 16Z" fill="#282626"/>
<g id="_10.Linkedin" data-name="10.Linkedin">
<path class="cls-2" d="M24.13,24.13v-6c0-2.92-.63-5.16-4.05-5.16a3.55,3.55,0,0,0-3.19,1.75h0V13.28H13.62V24.13H17V18.74c0-1.42.26-2.78,2-2.78s1.74,1.6,1.74,2.86v5.29h3.38Z"/>
<path class="cls-2" d="M8.14,13.28h3.37V24.13H8.14Z"/>
<path class="cls-2" d="M9.82,7.87a2,2,0,1,0,1.95,2A2,2,0,0,0,9.82,7.87Z"/>
</g>
</g>
</g>
</svg>