<svg width="32" height="32" xmlns="http://www.w3.org/2000/svg" viewBox="0 0 32 32">
<defs>
<style>
    .cls-1{
        fill:#eaeaea;
    }
    .cls-2{
        fill:#ea7845;
    }
</style>
</defs>
<g id="Layer_2" data-name="Layer 2">
<g id="Layer_1-2" data-name="Layer 1">
<path opacity="0.1" fill-rule="evenodd" clip-rule="evenodd" d="M0 16C0 7.16344 7.16344 0 16 0C24.8366 0 32 7.16344 32 16C32 24.8366 24.8366 32 16 32C7.16344 32 0 24.8366 0 16Z" fill="#282626"/>
<g id="_32.Reddit" data-name="32.Reddit">
<path id="Icon" class="cls-2" d="M26,16.16a2.18,2.18,0,0,0-3.69-1.53,10.65,10.65,0,0,0-5.79-1.84l1-4.67,3.22.65A1.49,1.49,0,1,0,22,7.12a1.47,1.47,0,0,0-1.12.72l-3.67-.72a.46.46,0,0,0-.55.35l-1.1,5.22a10.71,10.71,0,0,0-5.86,1.84,2.19,2.19,0,0,0-3,3.2,2.73,2.73,0,0,0,.6.4,3.53,3.53,0,0,0,0,.65c0,3.37,3.92,6.11,8.76,6.11s8.76-2.72,8.76-6.11a2.36,2.36,0,0,0,0-.65A2.14,2.14,0,0,0,26,16.16Zm-15,1.52a1.5,1.5,0,1,1,1.5,1.5A1.5,1.5,0,0,1,10.93,17.68Zm8.74,4.14A5.7,5.7,0,0,1,16,23a5.75,5.75,0,0,1-3.69-1.15.4.4,0,0,1,.57-.57A5,5,0,0,0,16,22.2a4.89,4.89,0,0,0,3.15-.93.42.42,0,1,1,.6.6v-.05Zm-.25-2.57a1.06,1.06,0,1,1,0,.05h-.08Z"/>
</g>
</g>
</g>
</svg>