<svg width="32" height="32" viewBox="0 0 32 32" fill="none" xmlns="http://www.w3.org/2000/svg">
<path opacity="0.1" fill-rule="evenodd" clip-rule="evenodd" d="M0 16C0 7.16344 7.16344 0 16 0C24.8366 0 32 7.16344 32 16C32 24.8366 24.8366 32 16 32C7.16344 32 0 24.8366 0 16Z" fill="#282626"/>
<path fill-rule="evenodd" clip-rule="evenodd" d="M15.5208 13.0046L15.5544 13.5582L14.9948 13.4905C12.9579 13.2306 11.1784 12.3493 9.66756 10.8692L8.92891 10.1347L8.73865 10.6771C8.33575 11.886 8.59316 13.1628 9.43253 14.0215C9.8802 14.496 9.77948 14.5638 9.00725 14.2814C8.73865 14.191 8.50363 14.1232 8.48124 14.1571C8.4029 14.2362 8.6715 15.2643 8.88414 15.6711C9.17513 16.236 9.76828 16.7897 10.4174 17.1173L10.9658 17.3772L10.3167 17.3885C9.68994 17.3885 9.66756 17.3998 9.73471 17.6371C9.95854 18.3715 10.8427 19.1511 11.8276 19.4901L12.5214 19.7273L11.9171 20.0889C11.0218 20.6086 9.96973 20.9024 8.91772 20.925C8.41409 20.9363 8 20.9815 8 21.0154C8 21.1284 9.36538 21.7611 10.16 22.0097C12.5438 22.7441 15.3753 22.4277 17.5017 21.1736C19.0126 20.281 20.5235 18.5071 21.2286 16.7897C21.6091 15.8745 21.9896 14.2023 21.9896 13.4001C21.9896 12.8803 22.0232 12.8125 22.6499 12.1911C23.0192 11.8295 23.3662 11.4341 23.4333 11.3211C23.5452 11.1064 23.534 11.1064 22.9633 11.2985C22.012 11.6375 21.8777 11.5923 22.3477 11.0838C22.6947 10.7223 23.1088 10.0669 23.1088 9.87487C23.1088 9.84097 22.9409 9.89747 22.7506 9.99916C22.5492 10.1121 22.1015 10.2816 21.7658 10.3833L21.1614 10.5754L20.613 10.2025C20.3108 9.99916 19.8856 9.77318 19.6617 9.70539C19.0909 9.54721 18.218 9.56981 17.7032 9.75059C16.3042 10.259 15.4201 11.5697 15.5208 13.0046Z" fill="#EA7845"/>
</svg>
