<svg width="12" height="8" viewBox="0 0 12 8" fill="none" xmlns="http://www.w3.org/2000/svg">
<path class="down-arrow" fill-rule="evenodd" clip-rule="evenodd" d="M6.79566 7.04528C6.58472 7.25596 6.29878 7.37429 6.00066 7.37429C5.70253 7.37429 5.4166 7.25596 5.20566 7.04528L0.962158 2.80328C0.751211 2.59224 0.632742 2.30604 0.632813 2.00764C0.632883 1.70925 0.751487 1.4231 0.962533 1.21216C1.17358 1.00121 1.45978 0.882742 1.75817 0.882813C2.05657 0.882883 2.34271 1.00149 2.55366 1.21253L6.00066 4.65953L9.44766 1.21253C9.65974 1.0075 9.94386 0.893973 10.2388 0.896397C10.5338 0.89882 10.816 1.017 11.0247 1.22549C11.2334 1.43397 11.3518 1.71608 11.3545 2.01106C11.3573 2.30603 11.244 2.59026 11.0392 2.80253L6.79641 7.04603L6.79566 7.04528Z"/>
</svg>
